<?xml version="1.0" encoding="UTF-8" standalone="no"?>
<svg width="48px" height="77px" viewBox="0 0 48 77" version="1.1" xmlns="http://www.w3.org/2000/svg" xmlns:xlink="http://www.w3.org/1999/xlink">
    <!-- Generator: Sketch 39.1 (31720) - http://www.bohemiancoding.com/sketch -->
    <title>Slice 1</title>
    <desc>Created with Sketch.</desc>
    <defs></defs>
    <g id="Page-1" stroke="none" stroke-width="1" fill="none" fill-rule="evenodd">
        <g id="noun_514998_cc" fill="#F95738">
            <g id="Group">
                <path d="M18.6,13.4 C18.9,13.9 19.4,14.1 19.9,14.1 C20.2,14.1 20.4,14 20.7,13.9 C21.4,13.5 21.6,12.5 21.2,11.8 C21.1,11.7 19.9,9.6 21.1,8 C23.6,4.7 21.3,1 21.2,0.8 C20.8,0.1 19.8,-0.1 19.1,0.3 C18.4,0.7 18.2,1.7 18.6,2.4 C18.6,2.4 19.9,4.5 18.7,6.1 C16.2,9.5 18.5,13.3 18.6,13.4 L18.6,13.4 Z" id="Shape"></path>
                <path d="M45.6,28.1 C44.1,26.4 42,25.3 39.8,25 C39.8,23.8 39.8,22.8 39.7,21.9 C39.6,19.7 37.9,18 35.7,18 L4.1,18 C1.9,18 0.1,19.7 0.1,21.9 C-0.2,31.4 -0.2,54.7 7.1,65.6 C8.2,67.3 10.2,68.3 12.3,68.3 L27.5,68.3 C29.6,68.3 31.5,67.3 32.7,65.6 C33.9,63.8 35,61.5 35.8,59.1 L36.5,59.1 C41.4,59.1 45.6,55.4 46.1,50.6 L47.9,35.7 C48.2,32.9 47.4,30.1 45.6,28.1 L45.6,28.1 Z M30.2,63.8 C29.6,64.7 28.6,65.2 27.5,65.2 L12.3,65.2 C11.2,65.2 10.2,64.7 9.6,63.8 C2.6,53.3 2.9,29.1 3.1,21.9 C3.1,21.4 3.6,20.9 4.1,20.9 L35.6,20.9 C36.2,20.9 36.6,21.3 36.6,21.9 C36.9,29.1 37.2,53.4 30.2,63.8 L30.2,63.8 Z M44.9,35.2 L43.1,50.1 C42.7,53.4 40,55.8 36.7,55.9 C39.2,46.9 39.7,35.8 39.8,27.9 C41.2,28.2 42.4,28.9 43.3,30 C44.6,31.5 45.2,33.3 44.9,35.2 L44.9,35.2 Z" id="Shape"></path>
                <path d="M33.1,73.2 L6.7,73.2 C5.9,73.2 5.2,73.9 5.2,74.7 C5.2,75.5 5.9,76.2 6.7,76.2 L33.1,76.2 C33.9,76.2 34.6,75.5 34.6,74.7 C34.6,73.9 33.9,73.2 33.1,73.2 L33.1,73.2 Z" id="Shape"></path>
                <path d="M9.4,31.3 C9.4,30.5 8.7,29.8 7.9,29.8 L7.9,29.8 C7.1,29.8 6.4,30.5 6.4,31.3 C6.5,40.4 7.4,52.8 10.7,60.2 C11,60.8 11.5,61.1 12.1,61.1 C12.3,61.1 12.5,61.1 12.7,61 C13.5,60.7 13.8,59.8 13.4,59 C10.1,51.7 9.5,38.6 9.4,31.3 L9.4,31.3 Z" id="Shape"></path>
                <path d="M7.9,27.8 L7.9,27.8 C8.7,27.8 9.4,27.1 9.4,26.3 L9.4,24.6 C9.4,23.8 8.8,23.1 8,23 C7.2,23 6.5,23.6 6.4,24.4 L6.4,26.2 C6.4,27.1 7,27.8 7.9,27.8 L7.9,27.8 Z" id="Shape"></path>
            </g>
        </g>
    </g>
</svg>