<?xml version="1.0" encoding="UTF-8" standalone="no"?>
<svg width="24px" height="26px" viewBox="0 0 24 26" version="1.1" xmlns="http://www.w3.org/2000/svg" xmlns:xlink="http://www.w3.org/1999/xlink">
    <!-- Generator: Sketch 39.1 (31720) - http://www.bohemiancoding.com/sketch -->
    <title>Slice 1</title>
    <desc>Created with Sketch.</desc>
    <defs></defs>
    <g id="Page-1" stroke="none" stroke-width="1" fill="none" fill-rule="evenodd">
        <g id="noun_544091_cc" transform="translate(0.000000, 1.000000)" fill="#F95738">
            <path d="M23.394,7.179 C19.854,2.956 14.911,0.973 10.379,1.912 C10.232,1.142 9.918,0.458 9.267,0.07 C9.03,-0.071 8.723,0.007 8.581,0.244 C8.44,0.482 8.518,0.788 8.755,0.93 C9.568,1.414 9.519,3.141 9.486,4.284 C9.479,4.532 9.474,4.748 9.475,4.949 C6.983,4.742 4.821,5.397 3.21,6.888 C1.31,8.646 0.326,11.432 0.511,14.531 C0.563,15.409 0.715,16.475 1.019,18.094 C1.195,19.032 1.423,20.417 1.511,21.687 C1.557,22.349 1.867,22.954 2.383,23.39 C2.85,23.785 3.45,24.001 4.059,24.001 C4.143,24.001 4.227,23.997 4.31,23.988 C14.419,22.995 15.51,15.624 15.51,12.501 C15.51,8.707 12.935,5.673 10.477,5.084 C10.471,4.866 10.478,4.597 10.486,4.311 C10.487,4.279 10.487,4.244 10.488,4.211 C13.002,7.32 17.616,7.576 20.518,7.737 C21.519,7.793 22.384,7.841 22.872,7.981 C22.918,7.995 22.964,8.001 23.01,8.001 C23.176,8.001 23.335,7.918 23.43,7.773 C23.55,7.589 23.535,7.347 23.394,7.179 L23.394,7.179 Z M14.51,12.501 C14.51,16.041 13.172,22.113 4.213,22.993 C3.784,23.034 3.355,22.901 3.029,22.626 C2.72,22.366 2.536,22.007 2.509,21.617 C2.417,20.3 2.182,18.874 2.001,17.909 C1.805,16.862 1.572,15.526 1.509,14.471 C1.343,11.672 2.21,9.176 3.889,7.622 C5.117,6.485 6.726,5.901 8.597,5.901 C9.031,5.901 9.48,5.933 9.942,5.997 L9.946,5.997 C12.105,6.277 14.51,9.017 14.51,12.501 L14.51,12.501 Z M20.573,6.74 C17.445,6.567 12.795,6.309 10.756,2.848 C14.503,2.142 18.555,3.621 21.705,6.81 C21.362,6.784 20.983,6.763 20.573,6.74 L20.573,6.74 Z M7.627,20.69 C7.706,20.884 7.893,21.001 8.09,21.001 C8.153,21.001 8.217,20.99 8.278,20.963 C9.538,20.449 10.586,19.733 11.395,18.835 C12.799,17.277 13.51,15.146 13.51,12.5 C13.51,12.224 13.286,12 13.01,12 C12.734,12 12.51,12.224 12.51,12.5 C12.51,14.891 11.885,16.797 10.652,18.166 C9.945,18.951 9.02,19.581 7.901,20.038 C7.645,20.143 7.523,20.435 7.627,20.69 L7.627,20.69 Z" id="Shape"></path>
        </g>
    </g>
</svg>